<svg xmlns="http://www.w3.org/2000/svg" viewBox="0 0 128 128">
  <defs><linearGradient id="g" x1="0" y1="0" x2="0" y2="1">
  <stop offset="0" stop-color="#4f46e5"/><stop offset="1" stop-color="#06b6d4"/></linearGradient></defs>
  <rect rx="24" width="128" height="128" fill="url(#g)"/>
  <g fill="#fff" transform="translate(0,-6)">
    <path d="M64 44c20.4 0 39 7.2 53.5 20.4l-8.6 9.4C97.6 63.6 81.4 57.9 64 57.9c-17.4 0-33.6 5.7-44.9 15.9l-8.6-9.4C25 51.2 43.6 44 64 44z"/>
    <path d="M64 64.2c13.8 0 26.3 4.9 36.8 13.8l-8.5 9.3c-7.3-6.1-17.5-10-28.3-10s-21 3.9-28.3 10l-8.5-9.3C37.7 69.1 50.2 64.2 64 64.2z"/>
    <path d="M64 84.5c7.2 0 13.7 2.6 18.8 6.9L73.6 101c-2.8-2.1-6.1-3.4-9.6-3.4s-6.8 1.2-9.6 3.4L45.2 91.4c5.1-4.3 11.6-6.9 18.8-6.9z"/>
  </g>
</svg>